<svg xmlns:dc="http://purl.org/dc/elements/1.1/" xmlns:cc="http://creativecommons.org/ns#" xmlns:rdf="http://www.w3.org/1999/02/22-rdf-syntax-ns#" xmlns:svg="http://www.w3.org/2000/svg" xmlns="http://www.w3.org/2000/svg" viewBox="0 0 234.66667 254.66667" height="22" width="20" xml:space="preserve" id="svg2" version="1.1"><metadata id="metadata8"><rdf:RDF><cc:Work rdf:about=""><dc:format>image/svg+xml</dc:format><dc:type rdf:resource="http://purl.org/dc/dcmitype/StillImage"/></cc:Work></rdf:RDF></metadata><defs id="defs6"/><g transform="matrix(1.3333333,0,0,-1.3333333,0,254.66667)" id="g10"><g transform="scale(0.1)" id="g12"><path id="path14" style="fill:#231f20;fill-opacity:1;fill-rule:nonzero;stroke:none" d="M 136.684,1511.81 H 335.09 c 28.473,84.76 76.223,160.67 138.055,222.51 103.636,103.63 246.816,167.73 404.953,167.73 158.132,0 301.312,-64.1 404.952,-167.73 61.83,-61.84 109.58,-137.75 138.05,-222.51 H 1611 c 31.31,0 56.7,-25.38 56.7,-56.69 l -0.01,-0.24 84.82,-1388.505 c 1.84,-31.1836 -21.96,-57.95703 -53.15,-59.79297 -1.11,-0.0664 -2.22,-0.09375 -3.32,-0.09375 v -0.125 H 60.1484 c -31.3086,0 -56.69137,25.38282 -56.69137,56.69142 0,2.3945 0.14844,4.7578 0.44141,7.0742 L 80.2148,1458.22 c 1.6524,30.15 26.6372,53.48 56.4692,53.46 z m 319.773,0 h 843.273 c -23.18,53.49 -56.22,101.71 -96.85,142.33 -83.11,83.12 -197.95,134.53 -324.782,134.53 -126.84,0 -241.672,-51.41 -324.785,-134.53 -40.629,-40.62 -73.68,-88.84 -96.856,-142.33 z m 990.193,-113.38 c 2.73,-22.64 4.14,-45.69 4.14,-69.07 0,-12.8 -0.43,-25.5 -1.26,-38.09 0.16,-1.76 0.26,-3.55 0.26,-5.36 0,-31.52 -25.55,-57.06 -57.06,-57.06 -31.52,0 -57.06,25.54 -57.06,57.06 0,1.18 0.04,2.36 0.12,3.53 h -0.11 c 1.14,13.16 1.72,26.47 1.72,39.92 0,23.48 -1.76,46.54 -5.16,69.07 H 423.949 c -3.394,-22.53 -5.16,-45.59 -5.16,-69.07 0,-11.16 0.402,-22.24 1.188,-33.21 0.601,-3.33 0.918,-6.75 0.918,-10.24 0,-31.52 -25.543,-57.06 -57.055,-57.06 -31.512,0 -57.059,25.54 -57.059,57.06 0,1.18 0.047,2.36 0.117,3.53 h -0.117 c -0.902,13.19 -1.379,26.5 -1.379,39.92 0,23.38 1.414,46.43 4.133,69.07 H 190.211 L 119.91,119.746 H 1635.9 l -78.11,1278.684 h -111.14"/></g></g></svg>