<svg xmlns:dc="http://purl.org/dc/elements/1.1/" xmlns:cc="http://creativecommons.org/ns#" xmlns:rdf="http://www.w3.org/1999/02/22-rdf-syntax-ns#" xmlns:svg="http://www.w3.org/2000/svg" xmlns="http://www.w3.org/2000/svg" viewBox="0 0 262.66666 269.33334" height="25" width="25" xml:space="preserve" id="svg2" version="1.1"><metadata id="metadata8"><rdf:RDF><cc:Work rdf:about=""><dc:format>image/svg+xml</dc:format><dc:type rdf:resource="http://purl.org/dc/dcmitype/StillImage"/></cc:Work></rdf:RDF></metadata><defs id="defs6"/><g transform="matrix(1.3333333,0,0,-1.3333333,0,269.33333)" id="g10"><g transform="scale(0.1)" id="g12"><path id="path14" style="fill:#231f20;fill-opacity:1;fill-rule:evenodd;stroke:none" d="m 245.918,1805.6 c 312.684,296.32 806.372,283.05 1102.692,-29.64 271.46,-286.45 283.04,-724.8 42.66,-1024.155 L 1961.69,149.883 1807.09,3.375 1236.67,605.297 C 924.836,381.344 487.746,416.453 216.281,702.91 -80.0352,1015.59 -66.7695,1509.29 245.918,1805.6 Z m 103.18,-108.88 c 252.55,239.33 651.292,228.62 890.632,-23.93 239.33,-252.56 228.61,-651.31 -23.94,-890.638 C 963.242,542.824 564.496,553.539 325.16,806.09 85.8281,1058.64 96.5469,1457.39 349.098,1696.72"/></g></g></svg>