<svg xmlns:dc="http://purl.org/dc/elements/1.1/" xmlns:cc="http://creativecommons.org/ns#" xmlns:rdf="http://www.w3.org/1999/02/22-rdf-syntax-ns#" xmlns:svg="http://www.w3.org/2000/svg" xmlns="http://www.w3.org/2000/svg" viewBox="0 0 324.02667 199.72" height="75" width="115" xml:space="preserve" id="svg2" version="1.1"><metadata id="metadata8"><rdf:RDF><cc:Work rdf:about=""><dc:format>image/svg+xml</dc:format><dc:type rdf:resource="http://purl.org/dc/dcmitype/StillImage"/></cc:Work></rdf:RDF></metadata><defs id="defs6"/><g transform="matrix(1.3333333,0,0,-1.3333333,0,199.72)" id="g10"><g transform="scale(0.1)" id="g12"><path id="path14" style="fill:#c8c7c7;fill-opacity:1;fill-rule:nonzero;stroke:none" d="m 103.711,362.352 c -16.418,0 -30.4102,4.839 -41.9688,14.539 C 50.168,386.57 40.5586,399.551 32.8828,415.832 25.2227,432.102 19.2266,451 14.9297,472.52 10.625,494.039 7.32813,516.641 5.04688,540.313 2.75781,563.984 1.33984,587.93 0.808594,612.141 0.261719,636.359 0,659.355 0,681.145 c 0,41.699 1.21094,77.816 3.63281,108.355 2.42188,30.523 5.71485,56.492 9.88279,77.867 4.1719,21.399 9.0157,38.742 14.5235,52.067 5.5195,13.312 11.3672,23.668 17.5586,31.066 6.1875,7.402 12.5117,12.441 18.9648,15.137 6.457,2.683 12.7734,4.031 18.9648,4.031 9.9532,0 18.7617,-2.961 26.4377,-8.875 7.66,-5.926 14.113,-14.191 19.371,-24.82 5.238,-10.625 9.207,-23.473 11.898,-38.535 2.684,-15.071 4.039,-31.618 4.039,-49.633 0,-28.789 -3.101,-58.512 -9.285,-89.18 -6.195,-30.664 -14.187,-61.27 -24.011,-91.797 -9.821,-30.539 -20.7778,-60.527 -32.8872,-90 -12.1054,-29.445 -24.0781,-57.363 -35.914,-83.719 1.6172,-13.199 4.039,-25.769 7.2656,-37.73 3.2305,-11.981 7.3945,-22.598 12.5117,-31.891 5.1016,-9.269 11.1563,-16.668 18.1602,-22.187 6.9844,-5.52 15.0586,-8.27 24.2067,-8.27 9.141,0 17.754,2.617 25.825,7.86 8.074,5.25 15.066,12.109 20.988,20.589 5.906,8.461 10.555,18.079 13.914,28.852 3.371,10.75 5.051,21.789 5.051,33.09 0,7.527 -0.743,15.125 -2.219,22.801 -1.477,7.656 -3.77,14.531 -6.867,20.566 -3.086,6.063 -6.926,10.965 -11.496,14.734 -4.578,3.77 -10.086,5.657 -16.543,5.657 -4.844,0 -8.618,-1.02 -11.297,-3.028 -2.696,-2.023 -4.715,-4.308 -6.059,-6.867 -1.351,-2.558 -2.156,-5.039 -2.422,-7.461 -0.265,-2.422 -0.398,-4.031 -0.398,-4.844 0,-3.769 0.805,-7.539 2.418,-11.296 1.613,-3.77 4.699,-7.129 9.281,-10.09 4.57,-3.231 6.859,-7.664 6.859,-13.324 0,-4.579 -1.546,-8.2 -4.632,-10.879 -3.102,-2.7 -6.535,-4.051 -10.297,-4.051 -5.387,0 -10.153,1.621 -14.328,4.851 -4.1683,3.231 -7.7347,7.329 -10.6878,12.309 -2.9688,4.969 -5.25,10.285 -6.8594,15.938 -1.6172,5.644 -2.4219,10.898 -2.4219,15.734 0,7.801 1.3438,15 4.0313,21.601 2.6875,6.582 6.3945,12.235 11.0937,16.942 4.7151,4.699 10.0981,8.332 16.1441,10.89 6.059,2.555 12.442,3.836 19.168,3.836 11.563,0 21.594,-2.695 30.059,-8.074 8.484,-5.383 15.543,-12.512 21.191,-21.387 5.653,-8.878 9.817,-18.964 12.512,-30.265 2.68,-11.297 4.031,-22.735 4.031,-34.293 0,-6.731 -0.406,-13.32 -1.211,-19.781 1.071,-2.161 2.829,-4.981 5.25,-8.469 2.418,-3.5 5.645,-6.863 9.684,-10.09 4.031,-3.223 8.875,-6.051 14.523,-8.473 5.653,-2.418 12.239,-3.629 19.778,-3.629 6.457,0 13.113,2.481 19.965,7.461 6.871,4.981 13.457,11.161 19.785,18.547 6.316,7.422 12.164,15.352 17.551,23.821 5.375,8.472 9.812,16.343 13.312,23.609 1.106,2.203 2.57,4.008 4.402,5.402 -0.875,-3.355 -1.738,-6.836 -2.578,-10.441 -3.371,-14.399 -5.05,-30.34 -5.05,-47.82 0,-2.829 0.082,-5.59 0.242,-8.27 -0.215,-0.269 -0.43,-0.551 -0.645,-0.82 -5.918,-7.387 -12.379,-14.188 -19.371,-20.367 -7,-6.204 -14.527,-11.301 -22.598,-15.34 -8.066,-4.032 -16.41,-6.043 -25.015,-6.043 -13.992,0 -25.828,2.48 -35.512,7.472 -9.683,4.969 -17.625,10.539 -23.808,16.731 -4.309,-9.422 -9.551,-18.024 -15.739,-25.832 -6.191,-7.801 -13.051,-14.59 -20.582,-20.379 -7.531,-5.781 -15.531,-10.289 -24.012,-13.52 -8.468,-3.222 -17.144,-4.839 -26.019,-4.839 M 82.3164,939 c -2.1562,0 -4.9062,-1.418 -8.2734,-4.23 -3.3594,-2.836 -6.9258,-7.805 -10.6914,-14.938 -3.7696,-7.125 -7.5313,-17.016 -11.2969,-29.656 -3.7695,-12.653 -7.1992,-28.715 -10.293,-48.215 -3.0859,-19.516 -5.6484,-42.984 -7.6562,-70.422 -2.0313,-27.441 -3.0313,-59.723 -3.0313,-96.851 0,-12.372 0.1289,-24.95 0.3985,-37.723 0.2656,-12.785 0.6015,-24.961 1.0156,-36.524 0.3945,-11.574 0.8633,-22.199 1.4062,-31.875 0.5391,-9.687 1.0703,-17.628 1.6172,-23.808 9.1406,22.597 18.4219,46.336 27.8399,71.219 9.414,24.882 17.8867,50.234 25.4257,76.066 7.5235,25.828 13.7227,51.914 18.5587,78.285 4.844,26.356 7.266,52.32 7.266,77.879 0,9.684 -0.469,19.84 -1.407,30.461 -0.949,10.633 -2.629,20.387 -5.047,29.262 -2.421,8.879 -5.718,16.277 -9.8941,22.195 -4.1641,5.91 -9.4766,8.875 -15.9375,8.875"/><path id="path16" style="fill:#c8c7c7;fill-opacity:1;fill-rule:nonzero;stroke:none" d="m 384.563,0 c -19.106,0 -33.762,6.57031 -43.985,19.7891 -10.226,13.1718 -15.336,31.6015 -15.336,55.25 0,12.9101 1.422,26.7619 4.235,41.5899 2.836,14.793 6.796,30.031 11.91,45.793 5.105,15.726 11.234,31.68 18.363,47.816 7.121,16.153 14.859,31.883 23.195,47.192 8.336,15.351 17.215,29.949 26.637,43.808 9.41,13.852 18.965,26.434 28.648,37.731 0.54,12.91 1.149,26.269 1.813,40.133 0.68,13.859 1.422,26.699 2.227,38.546 -7.004,-12.386 -15.676,-22.347 -26.028,-29.867 -10.359,-7.531 -21.73,-11.301 -34.101,-11.301 -20.45,0 -36.457,6.86 -48.016,20.579 -10.207,12.101 -15.906,28.171 -17.113,48.23 -0.16,2.68 -0.242,5.441 -0.242,8.27 0,17.48 1.679,33.421 5.05,47.82 0.84,3.605 1.703,7.086 2.578,10.441 2.618,10.024 5.387,18.922 8.305,26.688 3.906,10.351 7.473,18.289 10.699,23.797 3.078,5.265 4.692,7.89 4.832,7.89 0.008,0 0.012,-0.007 0.012,-0.019 2.953,4.57 7.121,6.855 12.508,6.855 4.57,0 8.269,-1.543 11.105,-4.629 2.813,-3.093 4.227,-6.668 4.227,-10.703 0,-2.961 -0.805,-5.644 -2.414,-8.066 0.012,0.015 0.023,0.019 0.027,0.019 0.09,0 -1.187,-2.222 -3.871,-6.679 -2.812,-4.707 -5.91,-11.504 -9.269,-20.379 -3.368,-8.879 -6.457,-19.512 -9.289,-31.875 -2.821,-12.387 -4.235,-25.969 -4.235,-40.758 0,-14.801 2.684,-26.371 8.07,-34.699 5.375,-8.34 14.122,-12.512 26.231,-12.512 15.332,0 29.184,11.371 41.562,34.102 12.368,22.718 22.864,55.738 31.477,99.062 0.535,3.484 2.148,6.387 4.844,8.672 2.679,2.281 5.91,3.437 9.679,3.437 4.297,0 7.93,-1.484 10.899,-4.445 2.957,-2.969 4.441,-6.601 4.441,-10.898 0,-0.801 -0.547,-5.575 -1.617,-14.317 -1.082,-8.75 -2.355,-20.379 -3.84,-34.914 -1.472,-14.519 -3.019,-31.398 -4.633,-50.629 -1.617,-19.238 -2.968,-39.761 -4.039,-61.55 9.414,9.421 18.965,19.039 28.653,28.851 9.683,9.828 19.097,20.109 28.25,30.867 9.136,10.762 17.687,22 25.629,33.692 7.929,11.711 14.984,24.152 21.175,37.336 1.344,2.961 3.227,5.175 5.649,6.66 2.422,1.476 5.109,2.219 8.074,2.219 4.57,0 8.266,-1.614 11.102,-4.844 2.812,-3.227 4.234,-6.856 4.234,-10.899 0,-2.164 -0.406,-4.172 -1.211,-6.043 -8.344,-17.5 -17.894,-33.5 -28.652,-48.027 -10.762,-14.523 -22.063,-28.312 -33.899,-41.363 -11.84,-13.047 -23.808,-25.688 -35.914,-37.918 -12.101,-12.231 -23.676,-24.551 -34.699,-36.93 -1.078,-18.551 -1.078,-37.199 0,-55.902 1.07,-18.688 1.609,-38.508 1.609,-59.489 0,-17.242 -0.539,-34.468 -1.609,-51.648 -1.078,-17.242 -2.828,-33.711 -5.25,-49.453 C 460.828,96.6211 457.539,81.8984 453.367,68.1992 449.191,54.4609 443.879,42.5703 437.426,32.4688 430.969,22.3711 423.43,14.4492 414.828,8.67188 406.215,2.89063 396.125,0 384.563,0 m 53.265,289.719 c -12.105,-17.5 -23.195,-35.887 -33.293,-55.258 -10.078,-19.371 -18.762,-38.629 -26.027,-57.731 -7.262,-19.109 -12.91,-37.39 -16.945,-54.878 -4.036,-17.493 -6.051,-33.0707 -6.051,-46.8129 0,-13.9688 2.277,-24.9297 6.859,-32.8907 4.57,-7.9179 11.832,-11.8984 21.789,-11.8984 8.875,0 16.75,4.3984 23.602,13.1016 6.871,8.75 12.652,21.207 17.359,37.3476 4.703,16.1524 8.27,35.7108 10.692,58.7108 2.417,23.012 3.628,48.762 3.628,77.289 0,11.563 -0.203,23.242 -0.601,35.102 -0.41,11.82 -0.746,24.48 -1.012,37.918"/><path id="path18" style="fill:#231f20;fill-opacity:1;fill-rule:nonzero;stroke:none" d="m 718.758,951.613 c 0.355,3.969 0.719,9.297 1.086,15.989 0.355,6.679 0.625,13.632 0.808,20.867 0.18,7.219 0.274,14.361 0.274,21.411 0,7.04 0,13.09 0,18.15 0,49.14 -5.785,84.55 -17.344,106.23 -11.566,21.68 -28.727,32.52 -51.488,32.52 -11.926,0 -22.406,-2.8 -31.438,-8.4 -9.039,-5.61 -16.445,-15 -22.218,-28.18 -5.79,-13.2 -10.125,-30.63 -13.008,-52.31 -2.899,-21.68 -4.336,-48.6 -4.336,-80.749 V 951.613 Z M 642.879,503.926 c -32.164,0 -60.621,5.969 -85.359,17.89 -24.758,11.926 -45.625,30.528 -62.606,55.821 -16.984,25.293 -29.809,57.726 -38.48,97.297 -8.672,39.558 -13.008,87.156 -13.008,142.804 v 140.918 c 0,47.334 3.523,87.884 10.566,121.684 7.051,33.78 16.262,62.14 27.649,85.09 11.375,22.94 24.562,41.09 39.558,54.47 14.992,13.36 30.442,23.57 46.344,30.62 15.895,7.04 31.703,11.56 47.426,13.55 15.715,1.98 30.254,2.98 43.629,2.98 24.562,0 48.238,-3.71 71,-11.11 22.765,-7.41 42.816,-20.06 60.16,-37.94 17.344,-17.89 31.168,-41.83 41.461,-71.81 10.304,-30 15.449,-67.4 15.449,-112.19 0,-15.18 -0.457,-30.54 -1.355,-46.074 -0.907,-15.543 -2.083,-30.813 -3.524,-45.801 -1.449,-14.996 -3.344,-29.535 -5.687,-43.629 -2.36,-14.09 -4.793,-27.098 -7.321,-39.023 H 581.094 v -75.879 c 0,-32.52 1.258,-59.883 3.793,-82.11 2.523,-22.214 6.769,-40.105 12.738,-53.652 5.957,-13.555 14.094,-23.309 24.387,-29.266 10.301,-5.968 23.211,-8.945 38.754,-8.945 8.304,0 16.433,1.707 24.39,5.145 7.942,3.429 14.903,9.121 20.867,17.07 5.957,7.949 10.743,18.516 14.36,31.711 3.609,13.183 5.422,29.539 5.422,49.051 v 23.3 H 840.164 V 707.18 c 0,-70.832 -16.894,-122.414 -50.672,-154.739 -33.797,-32.343 -82.656,-48.515 -146.613,-48.515"/><path id="path20" style="fill:#231f20;fill-opacity:1;fill-rule:nonzero;stroke:none" d="m 962.656,1497.94 h 137.124 v -175.6 l -7.05,-127.91 c 10.12,14.09 21.05,25.74 32.8,34.95 11.73,9.22 23.84,16.62 36.3,22.23 12.47,5.59 25.12,9.56 37.94,11.92 12.83,2.35 25.57,3.52 38.22,3.52 43.71,0 77.41,-15.27 101.08,-45.8 23.65,-30.54 35.5,-76.33 35.5,-137.39 V 512.063 h -137.13 v 566.917 c 0,32.88 -5.06,55.73 -15.17,68.56 -10.12,12.82 -24.93,19.24 -44.44,19.24 -13.74,0 -27.56,-4.61 -41.46,-13.82 -13.92,-9.21 -26.12,-21.95 -36.59,-38.21 V 512.063 H 962.656 v 985.877"/><path id="path22" style="fill:#231f20;fill-opacity:1;fill-rule:nonzero;stroke:none" d="m 1532.27,1160.82 h -57.97 v 97.56 h 69.91 l 27.63,193.49 h 97.56 v -193.49 h 119.24 v -97.56 H 1669.4 V 686.035 c 0,-16.258 1.55,-29.355 4.61,-39.285 3.07,-9.953 7.33,-17.715 12.74,-23.312 5.43,-5.606 11.73,-9.305 18.96,-11.114 7.23,-1.804 14.83,-2.703 22.77,-2.703 13.36,0 25.2,1.621 35.51,4.871 10.3,3.254 20.14,7.766 29.53,13.555 v -75.879 c -7.95,-9.754 -16.52,-17.715 -25.74,-23.848 -9.22,-6.152 -18.71,-11.113 -28.46,-14.902 -9.76,-3.797 -19.7,-6.414 -29.8,-7.859 -10.12,-1.446 -20.06,-2.168 -29.82,-2.168 -19.15,0 -37.58,2.527 -55.28,7.586 -17.71,5.05 -33.42,14.718 -47.15,28.996 -13.75,14.265 -24.66,34.05 -32.79,59.343 -8.12,25.293 -12.21,58.176 -12.21,98.645 v 462.859"/><path id="path24" style="fill:#231f20;fill-opacity:1;fill-rule:nonzero;stroke:none" d="m 2046.09,609.621 c 11.56,0 22.85,2.977 33.88,8.945 11.01,5.957 20.32,13.27 27.91,21.942 v 233.597 c -7.24,-2.894 -15.36,-6.328 -24.39,-10.296 -9.04,-3.977 -18.79,-9.215 -29.27,-15.719 -9.75,-6.145 -19.33,-13.547 -28.72,-22.219 -9.41,-8.672 -17.81,-18.973 -25.21,-30.894 -7.41,-11.926 -13.37,-25.391 -17.88,-40.383 -4.52,-14.992 -6.78,-31.703 -6.78,-50.129 0,-28.547 5.6,-51.485 16.81,-68.828 11.19,-17.344 29.07,-26.016 53.65,-26.016 z m -60.7,-105.695 c -23.13,0 -43.63,4.609 -61.51,13.828 -17.9,9.211 -32.98,21.758 -45.27,37.668 -12.28,15.887 -21.59,34.766 -27.91,56.641 -6.33,21.855 -9.48,45.605 -9.48,71.269 0,30.703 3.8,57.988 11.38,81.836 7.59,23.848 18.7,45.34 33.34,64.496 14.62,19.145 32.79,36.582 54.47,52.305 21.68,15.711 46.79,30.621 75.33,44.711 13.73,6.859 29.17,13.824 46.34,20.863 17.16,7.051 32.43,13.098 45.8,18.16 v 98.647 c 0,14.44 -0.54,27.91 -1.63,40.37 -1.08,12.47 -3.7,23.31 -7.85,32.52 -4.16,9.22 -10.39,16.44 -18.7,21.68 -8.32,5.24 -19.7,7.86 -34.15,7.86 -9.75,0 -19.24,-1.81 -28.45,-5.42 -9.22,-3.61 -17.35,-9.75 -24.4,-18.43 -7.04,-8.67 -12.64,-20.23 -16.79,-34.68 -4.16,-14.46 -6.24,-32.35 -6.24,-53.66 v -32.52 h -104.6 c -3.26,14.09 -5.7,27.01 -7.32,38.75 -1.63,11.74 -2.44,23.39 -2.44,34.96 0,27.82 4.79,52.39 14.37,73.71 9.57,21.31 22.94,39.2 40.1,53.66 17.16,14.45 37.67,25.38 61.52,32.79 23.84,7.4 50.04,11.11 78.58,11.11 37.22,0 68.11,-4.07 92.69,-12.19 24.57,-8.14 44.17,-20.33 58.81,-36.59 14.62,-16.26 24.93,-36.68 30.88,-61.24 5.97,-24.58 8.95,-53.3 8.95,-86.18 V 512.063 h -101.9 l -9.75,63.953 c -14.83,-21.328 -34.6,-38.672 -59.35,-52.032 -24.75,-13.367 -53.03,-20.058 -84.82,-20.058"/><path id="path26" style="fill:#231f20;fill-opacity:1;fill-rule:nonzero;stroke:none" d="m 2371.85,494.82 c 4.44,0 7.55,0.93 9.35,2.782 1.8,1.851 2.69,4.734 2.69,8.668 v 3.585 c 0,1.532 -0.2,2.918 -0.6,4.141 -0.39,1.219 -1.06,2.274 -1.96,3.164 -0.91,0.879 -2.15,1.551 -3.71,2 -1.58,0.461 -3.49,0.684 -5.77,0.684 h -2.65 V 494.82 Z m -18.28,35.785 h 15.63 c 2.17,0 4.44,-0.058 6.83,-0.164 2.4,-0.117 4.77,-0.402 7.13,-0.859 2.37,-0.461 4.61,-1.144 6.75,-2.051 2.14,-0.91 4.02,-2.16 5.68,-3.761 1.65,-1.59 2.96,-3.582 3.93,-5.977 0.97,-2.391 1.45,-5.293 1.45,-8.711 v -2.559 c 0,-4.265 -0.94,-7.957 -2.82,-11.062 -1.87,-3.102 -4.61,-5.449 -8.2,-7.039 l 15.98,-28.274 h -17.68 l -10.94,23.911 h -8.11 v -23.911 h -15.63 z m 22.38,-90.265 c 2.67,0 5.55,0.18 8.63,0.551 3.06,0.371 6.13,1.121 9.18,2.257 3.04,1.153 5.95,2.75 8.71,4.832 2.75,2.079 5.2,4.84 7.34,8.29 2.13,3.441 3.84,7.628 5.12,12.55 1.29,4.918 1.95,10.828 2.01,17.719 v 15.543 c 0,6.895 -0.62,12.813 -1.87,17.762 -1.26,4.953 -2.95,9.14 -5.09,12.558 -2.13,3.418 -4.6,6.164 -7.38,8.243 -2.8,2.07 -5.7,3.683 -8.71,4.824 -3.02,1.133 -6.07,1.886 -9.15,2.258 -3.07,0.371 -5.94,0.554 -8.62,0.554 -2.79,0 -5.75,-0.195 -8.89,-0.593 -3.12,-0.403 -6.22,-1.184 -9.26,-2.344 -3.04,-1.172 -5.95,-2.824 -8.71,-4.961 -2.76,-2.129 -5.21,-4.903 -7.35,-8.32 -2.13,-3.418 -3.83,-7.579 -5.08,-12.473 -1.25,-4.902 -1.87,-10.731 -1.87,-17.508 v -15.543 c 0,-6.769 0.62,-12.609 1.87,-17.508 1.25,-4.902 2.93,-9.051 5.04,-12.472 2.11,-3.418 4.54,-6.188 7.31,-8.321 2.75,-2.136 5.66,-3.789 8.71,-4.957 3.05,-1.16 6.11,-1.941 9.22,-2.34 3.1,-0.402 6.05,-0.601 8.84,-0.601 z m 0,-12.469 c -3.25,0 -6.85,0.27 -10.81,0.809 -3.95,0.539 -7.93,1.582 -11.95,3.121 -4.01,1.539 -7.92,3.668 -11.7,6.398 -3.79,2.742 -7.15,6.289 -10.08,10.68 -2.94,4.383 -5.29,9.723 -7.09,16.012 -1.79,6.289 -2.69,13.73 -2.69,22.339 v 14.168 c 0,8.602 0.9,16.043 2.69,22.332 1.8,6.29 4.17,11.641 7.13,16.055 2.96,4.414 6.34,7.988 10.12,10.723 3.79,2.726 7.71,4.855 11.75,6.359 4.04,1.512 8.04,2.528 12,3.074 3.96,0.539 7.55,0.813 10.8,0.813 3.13,0 6.63,-0.254 10.5,-0.774 3.88,-0.507 7.82,-1.492 11.84,-2.937 4.01,-1.457 7.91,-3.535 11.69,-6.242 3.78,-2.703 7.17,-6.258 10.16,-10.672 2.99,-4.414 5.38,-9.777 7.18,-16.094 1.8,-6.32 2.68,-13.867 2.68,-22.637 V 487.23 c 0,-8.769 -0.9,-16.32 -2.72,-22.64 -1.83,-6.32 -4.22,-11.692 -7.18,-16.09 -2.96,-4.418 -6.35,-7.98 -10.16,-10.68 -3.81,-2.699 -7.75,-4.781 -11.79,-6.238 -4.04,-1.441 -8,-2.434 -11.87,-2.941 -3.87,-0.512 -7.37,-0.77 -10.5,-0.77"/><g transform="scale(10)" id="g28"><text id="text32" style="font-variant:normal;font-weight:300;font-size:33px;font-family:'Josefin Sans';-inkscape-font-specification:JosefinSans-Light;writing-mode:lr-tb;fill:#231f20;fill-opacity:1;fill-rule:nonzero;stroke:none" transform="matrix(1,0,0,-1,46.3324,19.823)"><tspan id="tspan30" y="0" x="0 22.704607 31.053234 45.671936 62.732933 87.218727 95.633759 116.16016 122.00098 130.34962 143.68163 158.86032">Dream Circus</tspan></text>
</g></g></g></svg>