<svg xmlns:dc="http://purl.org/dc/elements/1.1/" xmlns:cc="http://creativecommons.org/ns#" xmlns:rdf="http://www.w3.org/1999/02/22-rdf-syntax-ns#" xmlns:svg="http://www.w3.org/2000/svg" xmlns="http://www.w3.org/2000/svg" viewBox="0 0 301.33334 201.33333" height="100" width="175" xml:space="preserve" id="svg2" version="1.1"><metadata id="metadata8"><rdf:RDF><cc:Work rdf:about=""><dc:format>image/svg+xml</dc:format><dc:type rdf:resource="http://purl.org/dc/dcmitype/StillImage"/></cc:Work></rdf:RDF></metadata><defs id="defs6"/><g transform="matrix(1.3333333,0,0,-1.3333333,0,201.33333)" id="g10"><g transform="scale(0.1)" id="g12"><path id="path14" style="fill:#c8c7c7;fill-opacity:1;fill-rule:evenodd;stroke:none" d="m 113.426,365.801 c -16.4143,0 -30.4104,4.84 -41.9651,14.531 -11.5703,9.688 -21.1796,22.668 -28.8554,38.949 -7.6641,16.27 -13.6602,35.172 -17.9571,56.692 -4.3046,21.515 -7.6015,44.121 -9.8789,67.789 -2.2929,23.672 -3.7109,47.621 -4.2422,71.828 -0.5117,22.707 -0.7773,44.336 -0.80855,64.906 v 1.024 6.964 c 0.07422,40.059 1.28905,74.883 3.63285,104.465 2.4179,30.528 5.7148,56.492 9.8789,77.871 4.1758,21.399 9.0195,38.739 14.5273,52.067 5.5195,13.308 11.3672,23.664 17.5586,31.062 6.1875,7.403 12.5117,12.442 18.9688,15.137 6.4531,2.684 12.7734,4.035 18.9609,4.035 9.9529,0 18.7619,-2.965 26.4379,-8.879 7.66,-5.922 14.117,-14.191 19.367,-24.82 5.238,-10.625 9.211,-23.469 11.902,-38.535 2.684,-15.067 4.039,-31.617 4.039,-49.633 0,-28.789 -3.101,-58.512 -9.285,-89.18 -6.195,-30.664 -14.187,-61.269 -24.012,-91.797 -9.82,-30.535 -20.777,-60.527 -32.8864,-90 -12.1055,-29.441 -24.0781,-57.363 -35.9102,-83.718 1.6133,-13.196 4.0352,-25.77 7.2618,-37.727 3.2304,-11.98 7.3945,-22.602 12.5117,-31.891 5.1015,-9.269 11.1562,-16.671 18.1562,-22.191 6.9883,-5.52 15.0629,-8.27 24.2109,-8.27 9.141,0 17.754,2.622 25.824,7.86 8.075,5.25 15.063,12.109 20.989,20.59 5.906,8.461 10.554,18.082 13.914,28.851 3.371,10.75 5.05,21.789 5.05,33.09 0,7.527 -0.742,15.125 -2.218,22.801 -1.477,7.656 -3.77,14.531 -6.868,20.566 -3.085,6.063 -6.925,10.969 -11.496,14.739 -4.578,3.765 -10.086,5.652 -16.543,5.652 -4.843,0 -8.617,-1.016 -11.296,-3.027 -2.696,-2.024 -4.715,-4.309 -6.055,-6.864 -1.352,-2.558 -2.16,-5.039 -2.422,-7.461 -0.27,-2.422 -0.402,-4.035 -0.402,-4.843 0,-3.77 0.804,-7.539 2.418,-11.301 1.617,-3.77 4.699,-7.129 9.281,-10.086 4.57,-3.234 6.863,-7.668 6.863,-13.328 0,-4.578 -1.547,-8.196 -4.637,-10.879 -3.101,-2.699 -6.531,-4.051 -10.296,-4.051 -5.387,0 -10.153,1.621 -14.329,4.852 -4.168,3.23 -7.734,7.328 -10.687,12.308 -2.9688,4.973 -5.2462,10.285 -6.8595,15.942 -1.6172,5.644 -2.4218,10.894 -2.4218,15.73 0,7.801 1.3398,15 4.0351,21.602 2.6836,6.582 6.3872,12.238 11.0902,16.941 4.711,4.699 10.101,8.332 16.144,10.891 6.059,2.558 12.442,3.84 19.172,3.84 11.563,0 21.59,-2.696 30.059,-8.079 8.48,-5.382 15.539,-12.511 21.191,-21.386 5.649,-8.879 9.813,-18.965 12.508,-30.266 2.68,-11.297 4.035,-22.734 4.035,-34.293 0,-6.73 -0.41,-13.32 -1.215,-19.781 1.071,-2.16 2.828,-4.981 5.25,-8.469 2.418,-3.5 5.645,-6.859 9.684,-10.09 4.035,-3.222 8.879,-6.051 14.527,-8.472 5.649,-2.418 12.235,-3.625 19.774,-3.625 6.457,0 13.117,2.476 19.964,7.457 6.872,4.98 13.461,11.16 19.786,18.55 6.312,7.418 12.164,15.352 17.55,23.821 5.375,8.468 9.813,16.34 13.317,23.605 1.101,2.203 2.57,4.008 4.398,5.406 -0.879,-3.355 -1.734,-6.839 -2.578,-10.445 -3.371,-14.394 -5.047,-30.34 -5.047,-47.816 0,-2.828 0.078,-5.59 0.238,-8.274 -0.214,-0.277 -0.429,-0.547 -0.644,-0.816 -5.918,-7.391 -12.379,-14.192 -19.371,-20.371 -6.996,-6.199 -14.527,-11.297 -22.598,-15.34 -8.066,-4.031 -16.41,-6.039 -25.015,-6.039 -13.993,0 -25.829,2.48 -35.512,7.469 -9.684,4.968 -17.621,10.539 -23.809,16.73 -4.308,-9.418 -9.551,-18.019 -15.738,-25.828 -6.191,-7.801 -13.051,-14.59 -20.582,-20.383 -7.535,-5.777 -15.531,-10.289 -24.012,-13.519 -8.465,-3.219 -17.144,-4.84 -26.023,-4.84 z M 92.0391,942.449 c -2.1602,0 -4.9102,-1.414 -8.2774,-4.23 -3.3594,-2.832 -6.9258,-7.805 -10.6875,-14.942 C 69.3047,916.156 65.5391,906.27 61.7734,893.625 58.0039,880.977 54.5742,864.91 51.4805,845.41 48.3945,825.898 45.8281,802.426 43.8242,774.992 41.793,747.547 40.793,715.266 40.793,678.141 c 0,-12.375 0.1289,-24.953 0.3984,-37.727 0.2656,-12.781 0.6016,-24.961 1.0156,-36.523 0.3985,-11.571 0.8633,-22.2 1.4063,-31.875 0.539,-9.688 1.0703,-17.625 1.6172,-23.809 9.1406,22.598 18.4218,46.34 27.8437,71.223 9.4141,24.879 17.8828,50.234 25.4219,76.062 7.5239,25.828 13.7229,51.914 18.5589,78.289 4.843,26.356 7.265,52.317 7.265,77.879 0,9.684 -0.468,19.84 -1.406,30.457 -0.949,10.637 -2.629,20.387 -5.047,29.266 -2.422,8.875 -5.719,16.273 -9.894,22.191 -4.164,5.914 -9.4769,8.875 -15.9339,8.875"/><path id="path16" style="fill:#c8c7c7;fill-opacity:1;fill-rule:evenodd;stroke:none" d="m 394.281,3.44922 c -19.105,0 -33.761,6.57418 -43.98,19.79298 -10.231,13.1719 -15.34,31.5976 -15.34,55.25 0,12.9101 1.418,26.7578 4.234,41.5898 2.836,14.789 6.797,30.027 11.91,45.789 5.106,15.731 11.231,31.68 18.364,47.82 7.125,16.149 14.855,31.879 23.199,47.192 8.336,15.347 17.211,29.945 26.637,43.808 9.41,13.852 18.961,26.43 28.644,37.731 0.539,12.91 1.149,26.269 1.813,40.129 0.679,13.863 1.418,26.699 2.226,38.551 -7,-12.391 -15.675,-22.352 -26.027,-29.872 -10.359,-7.527 -21.734,-11.3 -34.102,-11.3 -20.449,0 -36.457,6.863 -48.015,20.582 -10.207,12.101 -15.906,28.172 -17.114,48.226 -0.16,2.684 -0.238,5.446 -0.238,8.274 0,17.48 1.676,33.422 5.047,47.816 0.844,3.606 1.699,7.09 2.578,10.445 2.617,10.024 5.391,18.918 8.305,26.684 3.906,10.352 7.473,18.293 10.699,23.801 3.078,5.262 4.692,7.887 4.836,7.887 0.004,0 0.008,-0.004 0.008,-0.02 2.953,4.574 7.125,6.859 12.508,6.859 4.574,0 8.269,-1.546 11.105,-4.629 2.813,-3.097 4.227,-6.671 4.227,-10.707 0,-2.953 -0.805,-5.64 -2.418,-8.066 0.015,0.016 0.027,0.023 0.031,0.023 0.09,0 -1.184,-2.226 -3.871,-6.679 -2.813,-4.711 -5.906,-11.504 -9.266,-20.383 -3.371,-8.879 -6.461,-19.512 -9.293,-31.871 -2.816,-12.391 -4.234,-25.969 -4.234,-40.762 0,-14.801 2.684,-26.371 8.074,-34.699 5.371,-8.34 14.117,-12.512 26.227,-12.512 15.332,0 29.187,11.371 41.562,34.102 12.371,22.719 22.86,55.742 31.477,99.062 0.535,3.485 2.148,6.387 4.844,8.672 2.679,2.285 5.914,3.438 9.679,3.438 4.297,0 7.934,-1.485 10.899,-4.446 2.953,-2.968 4.441,-6.597 4.441,-10.894 0,-0.805 -0.547,-5.578 -1.617,-14.32 -1.078,-8.747 -2.352,-20.379 -3.836,-34.911 -1.477,-14.523 -3.024,-31.402 -4.637,-50.632 -1.617,-19.239 -2.969,-39.758 -4.039,-61.547 9.418,9.418 18.965,19.039 28.656,28.847 9.684,9.828 19.094,20.11 28.243,30.871 9.144,10.762 17.691,22 25.632,33.692 7.93,11.707 14.985,24.148 21.176,37.332 1.344,2.961 3.227,5.176 5.653,6.664 2.417,1.473 5.105,2.215 8.07,2.215 4.57,0 8.265,-1.614 11.101,-4.844 2.813,-3.223 4.235,-6.855 4.235,-10.898 0,-2.161 -0.406,-4.172 -1.211,-6.043 -8.344,-17.496 -17.899,-33.5 -28.653,-48.028 -10.761,-14.519 -22.062,-28.312 -33.894,-41.359 -11.84,-13.051 -23.809,-25.692 -35.918,-37.922 -12.102,-12.238 -23.672,-24.551 -34.699,-36.93 -1.082,-18.55 -1.082,-37.199 0,-55.898 1.066,-18.692 1.609,-38.512 1.609,-59.492 0,-17.239 -0.543,-34.469 -1.609,-51.649 -1.082,-17.242 -2.828,-33.711 -5.25,-49.449 C 470.547,100.07 467.258,85.3477 463.086,71.6484 458.91,57.9102 453.598,46.0234 447.145,35.9219 440.691,25.8203 433.148,17.9023 424.547,12.1211 415.934,6.34375 405.844,3.44922 394.281,3.44922 Z m 53.27,289.72278 c -12.11,-17.5 -23.199,-35.891 -33.297,-55.262 -10.078,-19.371 -18.758,-38.629 -26.024,-57.73 -7.261,-19.11 -12.914,-37.391 -16.949,-54.879 -4.035,-17.488 -6.051,-33.0705 -6.051,-46.8088 0,-13.9727 2.282,-24.9297 6.86,-32.8906 4.57,-7.918 11.832,-11.8985 21.785,-11.8985 8.879,0 16.754,4.3985 23.605,13.0977 6.872,8.75 12.653,21.2109 17.36,37.3476 4.703,16.1526 8.269,35.7106 10.695,58.7146 2.414,23.008 3.625,48.758 3.625,77.289 0,11.559 -0.203,23.239 -0.601,35.098 -0.407,11.82 -0.746,24.48 -1.008,37.922"/><path id="path18" style="fill:#ffffff;fill-opacity:1;fill-rule:evenodd;stroke:none" d="m 728.477,955.063 c 0.359,3.968 0.718,9.296 1.082,15.992 0.359,6.679 0.629,13.633 0.812,20.863 0.18,7.223 0.274,14.362 0.274,21.412 0,7.04 0,13.09 0,18.15 0,49.14 -5.786,84.56 -17.344,106.23 -11.567,21.68 -28.723,32.52 -51.488,32.52 -11.922,0 -22.407,-2.8 -31.438,-8.39 -9.035,-5.61 -16.441,-15.01 -22.219,-28.19 -5.785,-13.2 -10.125,-30.62 -13.008,-52.3 -2.894,-21.68 -4.339,-48.61 -4.339,-80.76 V 955.063 Z M 652.598,507.379 c -32.164,0 -60.621,5.965 -85.36,17.891 -24.758,11.921 -45.629,30.527 -62.605,55.82 -16.988,25.289 -29.809,57.723 -38.481,97.293 -8.668,39.558 -13.007,87.156 -13.007,142.805 v 140.921 c 0,47.331 3.523,87.881 10.566,121.681 7.051,33.78 16.258,62.14 27.648,85.09 11.375,22.94 24.567,41.1 39.559,54.47 14.992,13.36 30.441,23.57 46.344,30.63 15.894,7.04 31.703,11.55 47.426,13.54 15.714,1.98 30.253,2.98 43.628,2.98 24.563,0 48.235,-3.71 71,-11.11 22.766,-7.41 42.817,-20.06 60.161,-37.94 17.343,-17.89 31.168,-41.83 41.461,-71.81 10.304,-30 15.449,-67.39 15.449,-112.19 0,-15.18 -0.457,-30.54 -1.356,-46.075 -0.906,-15.543 -2.082,-30.809 -3.523,-45.801 -1.449,-14.992 -3.344,-29.535 -5.688,-43.625 -2.359,-14.09 -4.793,-27.101 -7.32,-39.023 H 590.809 v -75.879 c 0,-32.52 1.261,-59.887 3.796,-82.113 2.524,-22.215 6.774,-40.106 12.739,-53.649 5.957,-13.558 14.094,-23.312 24.383,-29.269 10.304,-5.965 23.214,-8.946 38.757,-8.946 8.305,0 16.434,1.707 24.387,5.149 7.949,3.426 14.906,9.117 20.875,17.07 5.953,7.945 10.738,18.516 14.356,31.707 3.609,13.184 5.421,29.539 5.421,49.055 v 23.301 h 114.36 v -28.723 c 0,-70.832 -16.895,-122.41 -50.672,-154.738 -33.797,-32.344 -82.66,-48.512 -146.613,-48.512"/><path id="path20" style="fill:#ffffff;fill-opacity:1;fill-rule:evenodd;stroke:none" d="M 972.375,1501.39 H 1109.5 v -175.6 l -7.05,-127.91 c 10.12,14.09 21.05,25.74 32.8,34.95 11.73,9.22 23.84,16.62 36.3,22.23 12.47,5.6 25.12,9.56 37.94,11.92 12.83,2.34 25.57,3.52 38.22,3.52 43.71,0 77.41,-15.27 101.08,-45.79 23.65,-30.55 35.5,-76.34 35.5,-137.4 V 515.512 h -137.13 v 566.918 c 0,32.87 -5.06,55.73 -15.17,68.57 -10.12,12.81 -24.93,19.23 -44.44,19.23 -13.74,0 -27.56,-4.6 -41.46,-13.82 -13.92,-9.21 -26.12,-21.95 -36.59,-38.21 V 515.512 H 972.375 v 985.878"/><path id="path22" style="fill:#ffffff;fill-opacity:1;fill-rule:evenodd;stroke:none" d="m 1541.99,1164.27 h -57.97 v 97.56 h 69.91 l 27.63,193.49 h 97.56 v -193.49 h 119.24 v -97.56 H 1679.12 V 689.484 c 0,-16.257 1.55,-29.355 4.61,-39.285 3.07,-9.949 7.33,-17.715 12.74,-23.312 5.43,-5.606 11.73,-9.305 18.96,-11.11 7.23,-1.808 14.83,-2.707 22.77,-2.707 13.36,0 25.2,1.621 35.51,4.871 10.3,3.254 20.14,7.766 29.53,13.555 v -75.875 c -7.95,-9.758 -16.52,-17.715 -25.74,-23.848 -9.22,-6.156 -18.71,-11.117 -28.46,-14.906 -9.76,-3.797 -19.7,-6.414 -29.8,-7.859 -10.12,-1.445 -20.06,-2.168 -29.82,-2.168 -19.15,0 -37.58,2.531 -55.28,7.586 -17.71,5.051 -33.42,14.719 -47.15,28.996 -13.75,14.266 -24.66,34.055 -32.79,59.348 -8.12,25.293 -12.21,58.171 -12.21,98.64 v 462.86"/><path id="path24" style="fill:#ffffff;fill-opacity:1;fill-rule:evenodd;stroke:none" d="m 2055.81,613.07 c 11.56,0 22.85,2.981 33.88,8.946 11.01,5.957 20.32,13.273 27.91,21.941 v 233.602 c -7.24,-2.899 -15.36,-6.329 -24.39,-10.297 -9.04,-3.981 -18.79,-9.215 -29.27,-15.719 -9.75,-6.148 -19.33,-13.551 -28.72,-22.223 -9.41,-8.668 -17.81,-18.968 -25.21,-30.894 -7.41,-11.922 -13.37,-25.387 -17.88,-40.383 -4.52,-14.992 -6.78,-31.699 -6.78,-50.129 0,-28.543 5.6,-51.484 16.81,-68.828 11.19,-17.344 29.07,-26.016 53.65,-26.016 z m -60.7,-105.691 c -23.13,0 -43.63,4.605 -61.51,13.824 -17.9,9.211 -32.98,21.762 -45.27,37.668 -12.28,15.887 -21.59,34.766 -27.91,56.641 -6.33,21.855 -9.48,45.605 -9.48,71.269 0,30.703 3.8,57.989 11.38,81.836 7.59,23.848 18.7,45.34 33.34,64.496 14.62,19.149 32.79,36.582 54.47,52.305 21.68,15.715 46.79,30.621 75.33,44.711 13.73,6.859 29.17,13.828 46.34,20.863 17.16,7.055 32.43,13.102 45.8,18.164 v 98.644 c 0,14.45 -0.54,27.91 -1.63,40.37 -1.08,12.47 -3.7,23.31 -7.85,32.53 -4.16,9.21 -10.39,16.43 -18.7,21.68 -8.32,5.23 -19.7,7.85 -34.15,7.85 -9.75,0 -19.24,-1.81 -28.45,-5.42 -9.22,-3.61 -17.35,-9.75 -24.4,-18.42 -7.04,-8.68 -12.64,-20.25 -16.79,-34.69 -4.16,-14.46 -6.24,-32.34 -6.24,-53.66 v -32.52 h -104.6 c -3.26,14.1 -5.7,27.01 -7.32,38.76 -1.63,11.73 -2.44,23.38 -2.44,34.95 0,27.82 4.79,52.39 14.37,73.72 9.57,21.31 22.94,39.19 40.1,53.65 17.16,14.45 37.67,25.38 61.52,32.79 23.84,7.4 50.04,11.11 78.58,11.11 37.22,0 68.11,-4.06 92.69,-12.19 24.57,-8.13 44.17,-20.33 58.81,-36.59 14.62,-16.26 24.93,-36.68 30.88,-61.24 5.97,-24.58 8.95,-53.3 8.95,-86.18 V 515.512 h -101.9 l -9.75,63.957 c -14.83,-21.328 -34.6,-38.676 -59.35,-52.035 -24.75,-13.368 -53.03,-20.055 -84.82,-20.055"/><path id="path26" style="fill:#ffffff;fill-opacity:1;fill-rule:evenodd;stroke:none" d="m 509.676,201.68 h 62.039 c 15.84,0 31.019,2.644 45.211,8.254 14.191,5.277 26.726,12.867 37.617,23.097 10.559,10.231 19.141,22.442 25.41,36.629 6.27,14.192 9.242,30.031 9.242,47.848 0,13.535 -2.308,27.066 -6.929,41.254 -4.621,13.859 -11.883,26.398 -22.114,37.949 -10.226,11.223 -23.757,20.461 -39.925,27.719 -16.172,6.929 -36.301,10.562 -59.735,10.562 h -50.816 z m 13.527,13.203 v 206.578 h 42.242 c 18.481,0 34.649,-2.969 48.508,-8.578 13.86,-5.942 25.41,-13.863 34.652,-23.434 8.911,-9.57 15.84,-20.789 20.458,-32.996 4.292,-12.543 6.601,-25.41 6.601,-38.281 0,-16.172 -2.641,-30.359 -8.25,-43.231 -5.609,-12.871 -12.871,-23.429 -22.109,-32.339 -9.571,-8.911 -20.457,-15.84 -33,-20.461 -12.867,-4.95 -26.403,-7.258 -40.59,-7.258 h -48.512"/><path id="path28" style="fill:#ffffff;fill-opacity:1;fill-rule:evenodd;stroke:none" d="m 788.531,332.031 c -11.222,-0.332 -21.781,-3.301 -32.011,-9.57 -10.231,-6.27 -18.149,-15.18 -23.098,-26.07 0,0.66 0,2.64 0,5.941 -0.332,2.969 -0.332,6.602 -0.332,10.231 0,3.628 0,7.257 0,10.558 -0.328,3.301 -0.328,5.281 -0.328,6.27 h -9.571 V 201.68 h 11.219 v 70.621 c 0,6.929 1.32,13.199 4.289,18.808 2.973,5.61 6.602,10.231 11.551,14.52 4.949,3.961 10.559,6.934 16.828,9.242 6.274,2.309 12.543,3.301 19.473,3.629 l 1.98,13.531"/><path id="path30" style="fill:#ffffff;fill-opacity:1;fill-rule:evenodd;stroke:none" d="m 901.055,225.441 c -4.95,-4.621 -10.559,-8.25 -17.157,-10.89 -6.601,-2.641 -13.531,-3.961 -21.121,-3.961 -11.55,0 -22.109,3.301 -31.019,9.574 -9.242,6.266 -15.84,14.188 -20.133,24.414 8.254,3.305 17.164,6.934 26.73,10.895 9.571,3.629 19.141,7.59 28.711,11.55 9.571,3.957 19.141,7.918 28.379,11.547 9.243,3.633 17.825,7.258 25.743,10.231 -4.954,12.867 -12.211,23.429 -22.11,31.679 -10.23,8.25 -22.109,12.211 -36.301,12.211 -9.242,0 -17.82,-1.648 -25.742,-5.281 -8.246,-3.629 -15.18,-8.246 -21.117,-14.187 -5.941,-6.274 -10.563,-13.203 -14.191,-21.453 -3.629,-8.247 -5.282,-16.829 -5.282,-26.071 0,-9.238 1.653,-17.816 5.282,-25.738 3.3,-8.25 7.921,-15.18 14.191,-21.121 5.937,-5.942 12.871,-10.559 21.117,-14.188 8.254,-3.632 16.832,-5.281 26.07,-5.281 8.915,0 17.493,1.649 25.743,4.953 7.922,2.965 14.851,7.258 20.789,12.867 z m -17.489,57.09 c -8.25,-3.301 -16.828,-6.601 -25.082,-9.898 -8.578,-3.633 -17.156,-6.934 -25.41,-10.231 -8.246,-3.632 -16.168,-6.929 -23.758,-9.902 -0.328,2.309 -0.656,4.293 -0.988,6.602 -0.332,2.312 -0.66,4.621 -0.66,6.929 0,7.59 1.32,14.52 4.289,21.453 2.973,6.598 6.93,12.536 11.879,17.489 4.953,4.949 10.562,8.91 17.492,11.879 6.598,2.968 13.86,4.289 21.449,4.289 10.231,0 19.141,-2.641 26.731,-7.918 7.59,-5.282 13.199,-12.211 17.16,-21.121 -7.262,-2.969 -14.848,-6.274 -23.102,-9.571 v 0"/><path id="path32" style="fill:#ffffff;fill-opacity:1;fill-rule:evenodd;stroke:none" d="m 947.918,239.961 c 3.297,-8.25 7.918,-15.18 13.855,-21.121 5.942,-5.942 12.872,-10.559 21.122,-14.188 7.921,-3.632 16.5,-5.281 26.065,-5.281 13.86,0 25.74,3.297 35.65,10.231 9.89,6.929 16.82,15.179 20.45,24.75 V 201.68 h 11.23 v 127.711 h -9.91 c -0.33,-5.278 -0.66,-10.559 -0.99,-16.168 -0.33,-5.614 -0.33,-10.891 -0.33,-16.504 -1.97,4.949 -4.61,9.57 -8.24,13.863 -3.64,4.289 -7.93,7.918 -12.87,11.219 -4.95,3.301 -10.24,5.937 -16.18,7.922 -5.93,1.648 -12.2,2.636 -18.81,2.636 -9.233,0 -17.815,-1.648 -25.737,-5.277 -8.246,-3.633 -15.18,-8.25 -21.121,-14.191 -5.938,-6.27 -10.559,-13.2 -14.184,-21.45 -3.633,-8.25 -5.281,-16.832 -5.281,-26.07 0,-8.91 1.648,-17.488 5.281,-25.41 z m 10.227,47.523 c 2.968,6.926 6.929,12.868 11.878,17.817 4.954,4.949 10.563,8.582 17.493,11.551 6.929,2.968 14.184,4.289 21.774,4.289 7.6,0 14.85,-1.321 21.78,-4.289 6.93,-2.969 12.88,-6.602 17.82,-11.551 4.95,-4.949 8.91,-10.891 11.88,-17.817 2.98,-6.933 4.29,-14.191 4.29,-21.785 0,-7.59 -1.31,-14.847 -4.29,-21.449 -2.97,-6.93 -6.93,-12.539 -11.88,-17.488 -4.94,-4.949 -10.89,-8.91 -17.82,-11.879 -6.93,-2.973 -14.18,-4.293 -21.78,-4.293 -7.59,0 -14.845,1.32 -21.774,4.293 -6.93,2.969 -12.539,6.93 -17.493,11.879 -4.949,4.949 -8.91,10.558 -11.878,17.488 -2.969,6.602 -4.29,13.859 -4.29,21.449 0,7.594 1.321,14.852 4.29,21.785 v 0"/><path id="path34" style="fill:#ffffff;fill-opacity:1;fill-rule:evenodd;stroke:none" d="m 1123.47,201.68 h 11.23 v 71.281 c 0,6.93 1.32,13.199 4.28,19.141 2.65,5.941 6.27,10.89 11.22,15.179 4.62,4.289 10.23,7.59 16.51,9.899 6.27,2.312 12.86,3.633 20.13,3.633 9.56,-0.333 16.83,-3.305 22.11,-8.915 4.95,-5.609 7.91,-12.207 8.25,-19.796 V 201.68 h 11.21 v 72.929 c 0.34,6.93 1.66,13.204 4.63,18.813 2.96,5.609 6.6,10.23 11.55,14.519 4.61,3.957 9.89,7.262 16.17,9.567 6.27,2.312 12.87,3.305 19.79,3.305 9.58,-0.333 17.16,-3.305 22.12,-8.915 4.95,-5.609 7.92,-12.207 8.24,-19.796 V 201.68 h 11.55 v 92.402 c -0.33,11.219 -4.28,20.461 -11.22,27.387 -7.26,6.933 -17.15,10.562 -29.69,10.562 -12.55,0 -23.44,-2.968 -32.35,-9.242 -8.9,-6.269 -16.16,-14.516 -21.12,-24.746 -0.99,10.23 -5.28,18.477 -12.2,24.746 -7.26,6.274 -16.5,9.242 -28.05,9.242 -12.88,0 -24.1,-3.301 -33.34,-9.902 -9.24,-6.598 -16.17,-15.18 -20.79,-25.738 0,0.66 0,2.64 0,5.941 -0.32,2.969 -0.32,6.602 -0.32,10.231 -0.34,3.628 -0.34,7.257 -0.34,10.558 -0.33,3.301 -0.33,5.281 -0.33,6.27 h -9.24 V 201.68"/><path id="path36" style="fill:#ffffff;fill-opacity:1;fill-rule:evenodd;stroke:none" d="m 1623.75,228.738 c -6.6,-4.289 -14.84,-7.918 -25.07,-10.886 -10.23,-3.301 -21.13,-4.954 -33.34,-4.954 -15.51,0 -29.7,2.973 -42.57,8.582 -12.86,5.61 -24.09,13.532 -33,23.098 -9.23,9.57 -16.16,20.461 -21.11,33.332 -4.95,12.539 -7.6,25.742 -7.6,39.598 0,14.851 2.98,28.715 8.58,41.582 5.61,12.871 13.2,24.422 22.77,34.32 9.57,9.57 20.79,17.488 33.66,23.102 12.88,5.609 26.73,8.25 41.59,8.25 9.56,0 19.13,-1.321 28.7,-3.633 9.58,-2.309 18.16,-5.938 25.75,-10.887 1.64,2.969 2.96,4.949 3.62,6.27 0.66,0.992 1.65,2.64 2.97,4.617 -7.59,4.953 -16.82,9.242 -27.72,12.215 -10.88,2.965 -22.1,4.285 -33.98,4.285 -16.5,0 -32.02,-2.969 -46.2,-9.238 -14.53,-6.27 -27.07,-14.52 -37.96,-25.411 -10.89,-10.886 -19.46,-23.761 -25.74,-38.281 -6.27,-14.847 -9.56,-30.687 -9.56,-47.847 0,-15.84 2.96,-31.024 8.57,-45.211 5.61,-14.188 13.53,-26.731 23.77,-37.621 10.23,-10.891 22.43,-19.137 36.96,-25.411 14.52,-6.269 30.68,-9.566 48.5,-9.566 13.54,0 26.07,1.648 36.96,5.281 10.89,3.297 20.13,7.258 27.73,12.207 l -6.28,12.207"/><path id="path38" style="fill:#ffffff;fill-opacity:1;fill-rule:evenodd;stroke:none" d="m 1656.76,367.012 c 1.98,-1.981 4.29,-2.973 6.93,-2.973 2.31,0 4.62,0.992 6.6,2.973 1.98,1.648 2.97,3.961 2.97,6.929 0,2.969 -0.99,5.278 -2.97,7.262 -1.98,1.977 -4.29,2.969 -6.6,2.969 -2.64,0 -4.95,-0.992 -6.93,-2.969 -1.98,-1.984 -2.97,-4.293 -2.97,-7.262 0,-2.968 0.99,-5.281 2.97,-6.929 z m 12.21,-37.621 h -11.22 V 201.68 h 11.22 v 127.711"/><path id="path40" style="fill:#ffffff;fill-opacity:1;fill-rule:evenodd;stroke:none" d="m 1781.5,332.031 c -11.22,-0.332 -21.79,-3.301 -32.02,-9.57 -10.22,-6.27 -18.14,-15.18 -23.09,-26.07 0,0.66 0,2.64 0,5.941 -0.33,2.969 -0.33,6.602 -0.33,10.231 0,3.628 0,7.257 0,10.558 -0.33,3.301 -0.33,5.281 -0.33,6.27 h -9.57 V 201.68 h 11.22 v 70.621 c 0,6.929 1.32,13.199 4.29,18.808 2.97,5.61 6.6,10.231 11.54,14.52 4.96,3.961 10.57,6.934 16.84,9.242 6.27,2.309 12.54,3.301 19.47,3.629 l 1.98,13.531"/><path id="path42" style="fill:#ffffff;fill-opacity:1;fill-rule:evenodd;stroke:none" d="m 1874.88,213.891 c -5.94,-2.309 -12.21,-3.301 -18.81,-3.301 -7.92,0 -15.18,1.32 -21.78,4.293 -6.93,2.969 -12.54,6.93 -17.49,11.879 -4.94,4.949 -8.91,10.558 -11.88,17.488 -2.96,6.602 -4.29,13.859 -4.29,21.449 0,7.594 1.32,14.852 4.29,21.785 2.97,6.926 6.94,12.868 11.88,17.817 4.95,4.949 10.56,8.582 17.49,11.551 6.6,2.968 13.86,4.289 21.78,4.289 6.6,0 12.87,-0.989 18.81,-3.301 5.94,-2.309 11.23,-5.277 15.84,-8.906 1.32,1.648 2.64,3.296 3.96,4.617 1.32,1.32 2.64,2.64 3.63,4.289 -5.61,4.289 -12.2,7.922 -19.14,10.562 -7.26,2.641 -14.85,3.957 -23.1,3.957 -9.24,0 -17.82,-1.648 -26.07,-5.277 -8.25,-3.633 -15.18,-8.25 -21.12,-14.191 -6.27,-5.942 -10.89,-12.871 -14.19,-21.121 -3.63,-8.247 -5.28,-16.829 -5.28,-26.071 0,-9.238 1.65,-17.816 5.28,-25.738 3.31,-8.25 7.92,-15.18 14.19,-21.121 5.94,-5.942 12.87,-10.559 21.12,-14.188 8.25,-3.632 16.83,-5.281 26.07,-5.281 8.25,0 15.84,1.32 22.77,3.961 6.93,2.641 13.53,6.27 19.14,10.559 -0.98,1.652 -2.3,2.968 -3.3,4.617 -1.32,1.324 -2.64,2.644 -3.96,3.961 -4.61,-3.629 -9.9,-6.598 -15.84,-8.578 v 0"/><path id="path44" style="fill:#ffffff;fill-opacity:1;fill-rule:evenodd;stroke:none" d="m 2037.57,329.391 h -11.55 v -71.282 c 0,-6.925 -1.32,-13.531 -3.96,-19.14 -2.97,-5.938 -6.6,-10.887 -11.54,-15.18 -4.95,-4.289 -10.23,-7.586 -16.51,-9.898 -6.27,-2.309 -13.2,-3.629 -20.46,-3.629 -9.57,0.66 -17.16,3.629 -22.11,9.238 -5.28,5.613 -8.24,12.211 -8.58,19.801 l 0.01,90.09 h -11.23 V 237.32 c 0.34,-11.218 4.29,-20.461 11.56,-27.386 6.93,-7.266 16.82,-10.891 29.03,-10.891 12.88,0 24.09,3.297 33.66,9.898 9.57,6.602 16.83,15.18 21.45,26.071 l 1,-34.321 h 9.23 v 128.7"/><path id="path46" style="fill:#ffffff;fill-opacity:1;fill-rule:evenodd;stroke:none" d="m 2132.27,328.07 c -6.6,2.313 -12.54,3.301 -17.82,3.301 -4.29,0 -8.58,-0.66 -12.87,-1.98 -4.29,-1.321 -8.25,-3.301 -11.55,-5.942 -3.63,-2.969 -6.27,-6.269 -8.58,-10.558 -2.31,-4.289 -3.3,-9.239 -3.3,-14.848 0,-6.934 1.65,-12.543 4.95,-16.832 2.97,-4.289 6.93,-7.918 11.88,-10.563 4.95,-2.964 9.9,-5.277 15.51,-6.925 5.61,-1.653 10.56,-3.633 15.51,-5.942 4.95,-2.308 8.91,-4.949 12.21,-8.25 2.97,-3.629 4.62,-8.25 4.62,-13.859 0,-4.621 -0.99,-8.582 -2.97,-11.883 -2.31,-3.297 -4.62,-5.937 -7.59,-7.918 -2.97,-1.98 -6.27,-3.301 -9.57,-4.289 -3.3,-0.992 -6.27,-1.32 -8.91,-1.32 -2.97,0 -5.94,0.328 -9.24,1.32 -3.3,0.66 -6.6,1.648 -9.57,2.969 -3.3,0.992 -6.27,2.308 -8.58,3.957 -2.31,1.656 -4.29,2.972 -5.28,4.621 -0.33,-0.328 -1.32,-1.649 -2.97,-3.297 -1.65,-1.98 -3.3,-3.629 -4.62,-4.949 4.95,-5.61 10.89,-9.903 18.48,-12.215 7.59,-2.305 14.52,-3.625 21.45,-3.625 6.6,0 12.54,0.988 17.49,2.969 4.95,1.98 8.91,4.617 12.54,8.25 3.63,3.629 6.27,7.59 7.92,12.207 1.65,4.293 2.64,9.242 2.64,14.191 0,6.93 -1.65,12.539 -4.62,16.832 -3.3,4.289 -7.26,7.59 -11.88,10.231 -4.95,2.64 -9.9,4.949 -15.51,6.925 -5.61,1.653 -10.89,3.961 -15.51,6.274 -4.95,2.308 -8.91,4.949 -11.88,8.25 -3.3,3.301 -4.95,7.59 -4.95,13.199 0,3.961 0.99,7.258 2.64,10.231 1.65,2.64 3.63,4.949 5.94,6.601 2.31,1.649 5.28,2.969 8.25,3.961 2.97,0.656 5.61,0.988 8.25,0.988 4.95,0 9.9,-0.988 15.51,-2.972 5.61,-2.309 9.57,-4.95 12.21,-8.246 l 6.6,7.918 c -4.95,5.277 -10.56,8.91 -16.83,11.218 v 0"/></g></g></svg>