<svg xmlns:dc="http://purl.org/dc/elements/1.1/" xmlns:cc="http://creativecommons.org/ns#" xmlns:rdf="http://www.w3.org/1999/02/22-rdf-syntax-ns#" xmlns:svg="http://www.w3.org/2000/svg" xmlns="http://www.w3.org/2000/svg" viewBox="0 0 32 36" height="22" width="20" xml:space="preserve" id="svg2" version="1.1"><metadata id="metadata8"><rdf:RDF><cc:Work rdf:about=""><dc:format>image/svg+xml</dc:format><dc:type rdf:resource="http://purl.org/dc/dcmitype/StillImage"/></cc:Work></rdf:RDF></metadata><defs id="defs6"/><g transform="matrix(1.3333333,0,0,-1.3333333,0,36)" id="g10"><g transform="scale(0.1)" id="g12"><path id="path14" style="fill:#231f20;fill-opacity:1;fill-rule:nonzero;stroke:none" d="m 123.563,263.156 c 21.097,0 40.203,-8.554 54.027,-22.379 13.824,-13.824 22.379,-32.925 22.379,-54.023 0,-21.094 -8.555,-40.203 -22.379,-54.027 -7.192,-7.192 -15.817,-12.957 -25.399,-16.832 19.887,-5.161 37.657,-15.563 51.75,-29.6567 C 223.781,66.3945 236.32,39.25 237.184,9.1875 H 225.84 C 224.98,36.125 213.711,60.4336 195.922,78.2227 177.406,96.7383 151.82,108.191 123.563,108.191 95.3047,108.191 69.7188,96.7383 51.2031,78.2227 33.418,60.4336 22.1445,36.1211 21.2852,9.1875 H 9.94141 c 0.86329,30.0664 13.41019,57.2109 33.24609,77.0508 14.0898,14.0937 31.8594,24.4957 51.75,29.6567 -9.5859,3.875 -18.207,9.64 -25.3984,16.832 -13.8243,13.824 -22.3828,32.933 -22.3828,54.027 0,21.098 8.5585,40.199 22.3828,54.023 13.8242,13.825 32.9299,22.379 54.0239,22.379 z m 46.007,-30.394 c -11.769,11.773 -28.043,19.058 -46.007,19.058 -17.965,0 -34.2349,-7.285 -46.0083,-19.058 -11.7734,-11.774 -19.0586,-28.043 -19.0586,-46.008 0,-17.969 7.2852,-34.238 19.0586,-46.012 11.7734,-11.769 28.0433,-19.054 46.0083,-19.054 17.964,0 34.238,7.285 46.007,19.054 11.774,11.774 19.059,28.043 19.059,46.012 0,17.965 -7.285,34.234 -19.059,46.008"/></g></g></svg>